<svg xmlns="http://www.w3.org/2000/svg" viewBox="0 0 132.49 69.68"><defs><style>.cls-1,.cls-2,.cls-3{fill:none;stroke:red;stroke-miterlimit:10;}.cls-2{stroke-width:1.02px;}.cls-3{stroke-width:0.94px;}</style></defs><title>Logo-Thin</title><g id="Layer_2" data-name="Layer 2"><g id="Layer_1-2" data-name="Layer 1"><path class="cls-1" d="M79,8.24V41.63c0,5.21-.44,10.31-2.44,13.07s-5.41,2.77-7.09-.32"/><path class="cls-1" d="M88.77,5.45V26c0,4.21,1.31,8.62,4.5,8.69S100.2,31,100.2,23.51V1.76"/><path class="cls-2" d="M28.63,38c0,13.36,1.39,17,4.6,17s6.84-2,6.84-17c0-12.45-1-15.8-4.55-15.8C31,22.17,28.63,25.84,28.63,38Z"/><path class="cls-1" d="M109.7.51V31a35.81,35.81,0,0,1,9.25.62"/><polyline class="cls-1" points="118.96 0.5 125.89 19.17 132.02 3.81"/><path class="cls-1" d="M125.89,19.18V53c0,7.37-3.19,10.87-8.06,12.5-3.9,1.3-12.56,1.31-15.94-5.32"/><path class="cls-1" d="M114.45,59.82C107.52,58.2,102,60,94.61,62.57S72,73.26,61.45,66.63"/><path class="cls-1" d="M43.52,21.38C53.7,20.63,67.89.38,78.27.5"/><line class="cls-1" x1="51.2" y1="51.81" x2="51.2" y2="18.02"/><path class="cls-3" d="M.08,46.93c10.5,1.77,10.83-5.85,19.84-5.85"/><line class="cls-1" x1="8.58" y1="61.27" x2="8.58" y2="27.48"/><line class="cls-1" x1="19.89" y1="57.97" x2="19.89" y2="24.18"/></g></g></svg>